<svg width="25" height="24" viewBox="0 0 25 24" fill="none" xmlns="http://www.w3.org/2000/svg">
<path d="M19.71 2.66667H21.0406V3.33334H19.71V2.66667Z" fill="#66757F"/>
<path d="M1.83337 8V21.3333C1.83337 22.806 3.02737 24 4.50004 24H20.5C21.9727 24 23.1667 22.806 23.1667 21.3333V8H1.83337Z" fill="#CCD6DD"/>
<path d="M20.5 2.66667H4.50004C3.02737 2.66667 1.83337 3.86067 1.83337 5.33334V8.66667H23.1667V5.33334C23.1667 3.86067 21.9727 2.66667 20.5 2.66667Z" fill="#DD2E44"/>
<path d="M6.39067 5.82066C5.92267 5.82066 5.54333 5.37666 5.54333 4.82799C5.54333 4.27999 5.92267 3.83533 6.39067 3.83533C6.858 3.83533 7.23733 4.27999 7.23733 4.82799C7.23733 5.37599 6.858 5.82066 6.39067 5.82066ZM10.3907 5.82066C9.92267 5.82066 9.54333 5.37666 9.54333 4.82799C9.54333 4.27999 9.92267 3.83533 10.3907 3.83533C10.858 3.83533 11.2373 4.27999 11.2373 4.82799C11.2373 5.37599 10.858 5.82066 10.3907 5.82066ZM14.3907 5.82066C13.9227 5.82066 13.5433 5.37666 13.5433 4.82799C13.5433 4.27999 13.9227 3.83533 14.3907 3.83533C14.858 3.83533 15.238 4.27999 15.238 4.82799C15.2373 5.37599 14.858 5.82066 14.3907 5.82066ZM18.3907 5.82066C17.9227 5.82066 17.5433 5.37666 17.5433 4.82799C17.5433 4.27999 17.9227 3.83533 18.3907 3.83533C18.858 3.83533 19.238 4.27999 19.238 4.82799C19.2373 5.37599 18.858 5.82066 18.3907 5.82066Z" fill="#292F33"/>
<path d="M18.71 0.119339C17.8587 0.119339 17.1214 0.654006 16.714 1.43267C16.31 0.670672 15.5694 0.119339 14.71 0.119339C13.8587 0.119339 13.1214 0.654006 12.714 1.43267C12.31 0.670672 11.5694 0.119339 10.71 0.119339C9.85871 0.119339 9.12138 0.654006 8.71404 1.43267C8.31004 0.670672 7.56938 0.119339 6.71004 0.119339C5.42071 0.119339 4.37671 1.33201 4.37671 2.78934C4.37671 4.02534 5.07338 5.03667 6.08938 5.40667C6.59538 5.59001 6.90538 5.10867 6.86204 4.72267C6.82538 4.40267 6.61271 4.19401 6.37604 4.04401C6.05271 3.83934 5.70938 3.37201 5.70938 2.79267C5.70938 2.05667 6.15671 1.39601 6.70938 1.39601C7.26204 1.39601 7.70938 1.99934 7.70938 2.66601H8.38671C8.38471 2.70734 8.37604 2.74667 8.37604 2.78867C8.37604 4.02467 9.07271 5.03601 10.0887 5.40601C10.5947 5.58934 10.9047 5.10801 10.8614 4.72201C10.8247 4.40267 10.612 4.19401 10.3754 4.04401C10.052 3.83934 9.70871 3.37201 9.70871 2.79267C9.70871 2.05667 10.156 1.39601 10.7087 1.39601C11.2614 1.39601 11.71 2.00001 11.71 2.66667H12.3874C12.3854 2.70801 12.3767 2.74734 12.3767 2.78934C12.3767 4.02534 13.0734 5.03667 14.0894 5.40667C14.5954 5.59001 14.9054 5.10867 14.862 4.72267C14.8254 4.40334 14.6127 4.19467 14.376 4.04467C14.0527 3.84001 13.7094 3.37267 13.7094 2.79334C13.7094 2.05734 14.1567 1.39667 14.7094 1.39667C15.262 1.39667 15.71 2.00001 15.71 2.66667H16.3874C16.3854 2.70801 16.3767 2.74734 16.3767 2.78934C16.3767 4.02534 17.0734 5.03667 18.0894 5.40667C18.5954 5.59001 18.9054 5.10867 18.862 4.72267C18.8254 4.40334 18.6127 4.19467 18.376 4.04467C18.0527 3.84001 17.7094 3.37267 17.7094 2.79334C17.7094 2.05734 18.1567 1.39667 18.7094 1.39667C19.262 1.39667 19.71 2.00001 19.71 2.66667H21.0407C21.0267 1.33334 19.99 0.119339 18.71 0.119339Z" fill="#66757F"/>
<path d="M7.83333 10H10.5V12.6667H7.83333V10ZM11.1667 10H13.8333V12.6667H11.1667V10ZM14.5 10H17.1667V12.6667H14.5V10ZM17.8333 10H20.5V12.6667H17.8333V10ZM4.5 13.3333H7.16667V16H4.5V13.3333ZM7.83333 13.3333H10.5V16H7.83333V13.3333ZM11.1667 13.3333H13.8333V16H11.1667V13.3333ZM14.5 13.3333H17.1667V16H14.5V13.3333ZM17.8333 13.3333H20.5V16H17.8333V13.3333ZM4.5 16.6667H7.16667V19.3333H4.5V16.6667ZM7.83333 16.6667H10.5V19.3333H7.83333V16.6667ZM11.1667 16.6667H13.8333V19.3333H11.1667V16.6667ZM14.5 16.6667H17.1667V19.3333H14.5V16.6667ZM17.8333 16.6667H20.5V19.3333H17.8333V16.6667ZM4.5 20H7.16667V22.6667H4.5V20ZM7.83333 20H10.5V22.6667H7.83333V20ZM11.1667 20H13.8333V22.6667H11.1667V20Z" fill="white"/>
</svg>
