<svg width="25" height="24" viewBox="0 0 25 24" fill="none" xmlns="http://www.w3.org/2000/svg">
<g clip-path="url(#clip0_1_1065)">
<path d="M24.5 12C24.5 18.6274 19.1273 24 12.5 24C5.87267 24 0.5 18.6274 0.5 12C0.5 5.3727 5.87267 3.05176e-05 12.5 3.05176e-05C19.1273 3.05176e-05 24.5 5.3727 24.5 12Z" fill="#FFCC4D"/>
<path d="M12.5 14C10.0846 14 8.48196 13.7187 6.49996 13.3334C6.04729 13.246 5.16663 13.3334 5.16663 14.6667C5.16663 17.3334 8.22996 20.6667 12.5 20.6667C16.7693 20.6667 19.8333 17.3334 19.8333 14.6667C19.8333 13.3334 18.9526 13.2454 18.5 13.3334C16.518 13.7187 14.9153 14 12.5 14Z" fill="#664500"/>
<path d="M6.5 14.6667C6.5 14.6667 8.5 15.3334 12.5 15.3334C16.5 15.3334 18.5 14.6667 18.5 14.6667C18.5 14.6667 17.1667 17.3334 12.5 17.3334C7.83333 17.3334 6.5 14.6667 6.5 14.6667Z" fill="white"/>
<path d="M10.9546 2.94202L7.92664 3.47602L6.36664 0.640686C6.19464 0.32802 5.8413 0.160686 5.49197 0.22202C5.14064 0.28402 4.8673 0.562686 4.81264 0.914686L4.31597 4.11269L1.28797 4.64669C0.931305 4.70935 0.655971 4.99669 0.607305 5.35602C0.558638 5.71535 0.747971 6.06469 1.07597 6.22069L3.7893 7.50869L3.29064 10.7167C3.2353 11.074 3.41664 11.426 3.7393 11.5894C3.85864 11.6494 3.98664 11.678 4.11397 11.678C4.33197 11.678 4.5473 11.5927 4.70797 11.43L7.0493 9.05602L10.0613 10.486C10.388 10.6407 10.7773 10.568 11.0253 10.3047C11.2733 10.0414 11.3226 9.64869 11.1486 9.33202L9.5833 6.48669L11.6933 4.34802C11.948 4.09002 12.006 3.69669 11.838 3.37535C11.6686 3.05402 11.3093 2.88002 10.9546 2.94202ZM14.0453 2.94202L17.0733 3.47602L18.6333 0.640686C18.8053 0.32802 19.1586 0.160686 19.508 0.22202C19.8586 0.28402 20.132 0.562686 20.1866 0.914686L20.6833 4.11269L23.7113 4.64669C24.0686 4.70935 24.344 4.99602 24.392 5.35535C24.44 5.71469 24.2513 6.06402 23.9233 6.22002L21.21 7.50802L21.7086 10.716C21.764 11.0734 21.5826 11.4254 21.26 11.5887C21.1406 11.6487 21.0126 11.6774 20.8853 11.6774C20.6673 11.6774 20.452 11.592 20.2913 11.4294L17.95 9.05535L14.938 10.4854C14.6113 10.64 14.222 10.5674 13.974 10.304C13.726 10.0407 13.6766 9.64802 13.8506 9.33135L15.416 6.48669L13.306 4.34802C13.0513 4.09002 12.9933 3.69669 13.1613 3.37535C13.3313 3.05402 13.6906 2.88002 14.0453 2.94202Z" fill="#E95F28"/>
</g>
<defs>
<clipPath id="clip0_1_1065">
<rect width="24" height="24" fill="white" transform="translate(0.5 3.05176e-05)"/>
</clipPath>
</defs>
</svg>
