<svg width="56" height="56" viewBox="0 0 56 56" fill="none" xmlns="http://www.w3.org/2000/svg">
<path d="M18.0924 8.19268C12.625 8.19268 8.19287 12.6248 8.19287 18.0922C8.19287 23.5596 12.625 27.9917 18.0924 27.9917C12.625 27.9917 8.19287 32.4237 8.19287 37.8912C8.19287 43.3586 12.625 47.7907 18.0924 47.7907C23.5598 47.7907 27.9919 43.3586 27.9919 37.8912C27.9919 43.3586 32.4239 47.7907 37.8914 47.7907C43.3588 47.7907 47.7909 43.3586 47.7909 37.8912C47.7909 32.4237 43.3588 27.9917 37.8914 27.9917C43.3588 27.9917 47.7909 23.5596 47.7909 18.0922C47.7909 12.6248 43.3588 8.19268 37.8914 8.19268C32.4239 8.19268 27.9919 12.6248 27.9919 18.0922C27.9919 12.6248 23.5598 8.19268 18.0924 8.19268Z" fill="#2BAF8C"/>
<path d="M35.0018 7.00055C31.1361 3.13425 24.8681 3.13376 21.0018 6.99945C17.1354 10.8652 17.135 17.1332 21.0007 20.9995C17.135 17.1332 10.867 17.1326 7.00067 20.9984C3.13431 24.8641 3.13388 31.1321 6.99957 34.9984C10.8653 38.8647 17.1332 38.8652 20.9996 34.9995C17.1332 38.8652 17.1327 45.1331 20.9985 48.9995C24.8642 52.8658 31.1321 52.8663 34.9985 49.0006C38.8648 45.1348 38.8653 38.8669 34.9996 35.0006C38.8653 38.8669 45.1332 38.8674 48.9996 35.0016C52.8659 31.136 52.8664 24.868 49.0007 21.0017C45.1349 17.1353 38.867 17.1349 35.0007 21.0005C38.867 17.1349 38.8675 10.8669 35.0018 7.00055Z" fill="#2BAF8C"/>
<path d="M32.6667 16H23.3333C22.5973 16 22 16.5973 22 17.3333V24.6667C22 24.6667 22 25.3333 22.6667 26L26.9527 29.3333H29.0473L33.3333 26C34 25.3333 34 24.6667 34 24.6667V17.3333C34 16.5973 33.4027 16 32.6667 16Z" fill="#DD2E44"/>
<path d="M24 16V27.0367L26.9527 29.3333H29.0473L32 27.0367V16H24Z" fill="#E1E8ED"/>
<path d="M25.3334 16V28.074L26.9527 29.3333H29.0474L30.6667 28.074V16H25.3334Z" fill="#DD2E44"/>
<path d="M30.6013 30.0133C30.6413 29.9047 30.6666 29.7887 30.6666 29.6667C30.6666 29.1147 30.2186 28.6667 29.6666 28.6667H26.3333C25.7806 28.6667 25.3333 29.1147 25.3333 29.6667C25.3333 29.7887 25.3586 29.9047 25.3986 30.0133C23.7693 30.926 22.6666 32.6667 22.6666 34.6667C22.6666 37.612 25.054 40 28 40C30.9453 40 33.3333 37.612 33.3333 34.6667C33.3333 32.6667 32.2306 30.926 30.6013 30.0133Z" fill="#FFAC33"/>
<path d="M28 38.6667C30.2091 38.6667 32 36.8758 32 34.6667C32 32.4575 30.2091 30.6667 28 30.6667C25.7909 30.6667 24 32.4575 24 34.6667C24 36.8758 25.7909 38.6667 28 38.6667Z" fill="#FFD983"/>
<path d="M29.8206 37.5733C29.7413 37.5733 29.6626 37.5493 29.5946 37.5007L28 36.3567L26.4046 37.5007C26.2686 37.598 26.0866 37.598 25.9513 37.4993C25.816 37.4013 25.7593 37.228 25.81 37.0693L26.4046 35.1493L24.824 34.0353C24.6893 33.936 24.634 33.762 24.6853 33.6033C24.7373 33.4447 24.8846 33.3373 25.0513 33.336L27.0093 33.3333L27.6326 31.4607C27.6853 31.302 27.8333 31.1953 28 31.1953C28.1666 31.1953 28.3146 31.302 28.3673 31.4607L28.98 33.3333L30.948 33.336C31.1153 33.3373 31.2626 33.4447 31.314 33.6033C31.3653 33.762 31.31 33.936 31.1753 34.0353L29.5946 35.1493L30.1893 37.0693C30.24 37.228 30.1826 37.4013 30.048 37.4993C29.9806 37.5487 29.9006 37.5733 29.8206 37.5733Z" fill="#FFAC33"/>
</svg>
