<svg width="25" height="24" viewBox="0 0 25 24" fill="none" xmlns="http://www.w3.org/2000/svg">
<g clip-path="url(#clip0_1_1053)">
<path d="M3.16663 7.33337V7.42471C3.16663 7.39671 3.17396 7.36871 3.17663 7.34071L3.16663 7.33337ZM11.8333 14.758C11.736 14.7134 11.642 14.6614 11.5586 14.594L3.54329 8.16337C3.29196 7.96004 3.16663 7.69271 3.16663 7.42471V15.5834C3.16663 16.9447 3.89529 17.2394 3.89529 17.2394L11.6113 23.3054C11.748 23.4127 11.8626 23.478 11.9633 23.5174C11.8873 23.4014 11.8333 23.2674 11.8333 23.1147V14.758ZM5.98463 15C5.32196 15 4.62929 14.3287 4.43863 13.5C4.24729 12.672 4.62996 12.0007 5.29196 12.0007C5.95463 12.0007 6.64729 12.672 6.83796 13.5C7.02929 14.3287 6.64729 15 5.98463 15ZM9.70663 20C9.04396 20 8.35129 19.328 8.16063 18.5C7.96929 17.6714 8.35196 17 9.01463 17C9.67729 17 10.37 17.6714 10.5606 18.5C10.7513 19.328 10.3693 20 9.70663 20Z" fill="#A0041E"/>
<path d="M21.4567 8.10737L13.3873 14.594C13.3193 14.6494 13.2447 14.6954 13.1667 14.7354V23.1147C13.1667 23.27 13.1113 23.406 13.0333 23.524C13.1367 23.4854 13.2567 23.4174 13.3987 23.3054C14.6127 22.3507 21.124 17.2394 21.124 17.2394C21.124 17.2394 21.8333 16.9447 21.8333 15.5834V7.36871C21.8333 7.63671 21.708 7.90404 21.4567 8.10737ZM16.4853 19.2614C16.324 20.0194 15.7393 20.6334 15.18 20.6334C14.6213 20.6334 14.2987 20.0194 14.46 19.2614C14.6213 18.5034 15.2053 17.8894 15.7647 17.8894C16.324 17.8894 16.646 18.5034 16.4853 19.2614ZM18.844 15.7474C18.6747 16.5287 18.0587 17.1614 17.4693 17.1614C16.8807 17.1614 16.5413 16.5287 16.7107 15.7474C16.8807 14.966 17.4967 14.3334 18.0847 14.3334C18.6747 14.3334 19.014 14.966 18.844 15.7474ZM20.886 12.344C20.7187 13.0874 20.1107 13.6887 19.5293 13.6887C18.948 13.6887 18.6127 13.0874 18.7807 12.344C18.948 11.602 19.5553 11 20.1367 11C20.7187 11 21.054 11.602 20.886 12.344ZM21.8293 7.33671C21.83 7.34737 21.8333 7.35804 21.8333 7.36871V7.33337L21.8293 7.33671Z" fill="#DD2E44"/>
<path d="M21.4566 6.63002L13.3593 0.333351C12.8573 -0.0733158 12.034 -0.0733158 11.5313 0.333351L3.54329 6.68602C3.31796 6.86802 3.19996 7.10202 3.17596 7.34135C3.17396 7.36935 3.16663 7.39668 3.16663 7.42468C3.16663 7.69268 3.29196 7.96002 3.54329 8.16335L11.5586 14.594C11.642 14.6614 11.7353 14.7127 11.8333 14.758V23.1147C11.8333 23.2674 11.8873 23.4014 11.9626 23.5174C12.0833 23.704 12.2733 23.8334 12.5 23.8334C12.724 23.8334 12.9126 23.7067 13.0333 23.524C13.1113 23.4067 13.1666 23.2707 13.1666 23.1147V14.7354C13.2446 14.6954 13.3193 14.6494 13.3873 14.594L21.4566 8.10735C21.708 7.90402 21.8333 7.63668 21.8333 7.36868C21.8333 7.35802 21.83 7.34735 21.8293 7.33602C21.82 7.07935 21.6973 6.82468 21.4566 6.63002ZM12.8333 5.77802C13.9066 5.77802 14.7773 6.47402 14.7773 7.33335C14.7773 8.19269 13.9066 8.88869 12.8333 8.88869C11.7593 8.88869 10.8893 8.19269 10.8893 7.33335C10.8893 6.47402 11.7593 5.77802 12.8333 5.77802Z" fill="#EA596E"/>
<path d="M12.8333 8.88868C13.9069 8.88868 14.7773 8.19234 14.7773 7.33335C14.7773 6.47436 13.9069 5.77802 12.8333 5.77802C11.7596 5.77802 10.8893 6.47436 10.8893 7.33335C10.8893 8.19234 11.7596 8.88868 12.8333 8.88868Z" fill="white"/>
<path d="M20.1366 11C19.5553 11 18.948 11.602 18.7806 12.344C18.6126 13.0874 18.948 13.6887 19.5293 13.6887C20.1106 13.6887 20.7186 13.0874 20.886 12.344C21.054 11.602 20.7186 11 20.1366 11ZM18.0853 14.3334C17.4966 14.3334 16.8806 14.966 16.7113 15.7474C16.542 16.5287 16.8813 17.1614 17.47 17.1614C18.0593 17.1614 18.6753 16.5287 18.8446 15.7474C19.014 14.966 18.6746 14.3334 18.0853 14.3334ZM15.764 17.8894C15.2046 17.8894 14.6206 18.5034 14.4593 19.2614C14.298 20.0194 14.6206 20.6334 15.1793 20.6334C15.7386 20.6334 16.3233 20.0194 16.4846 19.2614C16.646 18.5034 16.3233 17.8894 15.764 17.8894Z" fill="white"/>
<path d="M5.29196 12.0007C4.62929 12.0007 4.24729 12.672 4.43863 13.5C4.62996 14.3287 5.32196 15 5.98463 15C6.64729 15 7.02929 14.3287 6.83796 13.5C6.64729 12.672 5.95463 12.0007 5.29196 12.0007ZM9.01396 17C8.35129 17 7.96929 17.6714 8.15996 18.5C8.35129 19.328 9.04396 20 9.70663 20C10.3693 20 10.7513 19.328 10.5606 18.5C10.3693 17.6714 9.67663 17 9.01396 17Z" fill="#E1E8ED"/>
</g>
<defs>
<clipPath id="clip0_1_1053">
<rect width="24" height="24" fill="white" transform="translate(0.5 3.05176e-05)"/>
</clipPath>
</defs>
</svg>
